<?xml version="1.0" encoding="UTF-8"?>
<svg id="Layer_2" data-name="Layer 2" xmlns="http://www.w3.org/2000/svg" viewBox="0 0 889.83 473.3">
  <defs>
    <style>
      .cls-1 {
        fill: #111;
      }

      .cls-2 {
        fill: #121313;
      }

      .cls-3 {
        fill: #37acbc;
      }

      .cls-4 {
        fill: #121212;
      }

      .cls-5 {
        fill: #101010;
      }

      .cls-6 {
        fill: #161717;
      }

      .cls-7 {
        fill: #101110;
      }
    </style>
  </defs>
  <g id="Layer_1-2" data-name="Layer 1">
    <g>
      <path class="cls-3" d="M766.63,143.92c-55.93-76.06-129.05-134.8-230.79-115.04-79.26,15.4-150.27,70.94-214.02,118.29-22.16,16.46-92.62,66.27-121.07,58.58,34.37-19.51,65.07-41.42,95.98-66.87C360.76,86.16,437.62,26.66,519.75,6.72c117.27-28.47,205.43,37.26,270.35,127.23,5.2,7.21,4.87,16.53,1.37,23.65-15.44,31.4-94.49-13.04-111.35,20.23-4.59-22.06,14.22-36.65,30.61-36.03l55.9,2.11Z"/>
      <path class="cls-5" d="M871.54,261.28c-14.37-20.13-35.56-30.9-59.32-29.58-20.58,1.13-39.9,12.73-53.59,32.89-4.53-8.81,1.48-20.19-3.79-27.33-2.54-3.38-17.71-3.57-17.71,1.35l-.39,231.44c4.73,4.31,19.61,5.05,19.71-2.32l.96-91.85c15.5,21.38,36.49,31.76,60.38,31.15,21.99-.55,42.37-11.54,55.91-32.18,22.21-33.95,21.48-80.53-2.15-113.58ZM856.76,362.87c-10,16.11-26.65,23.73-42.47,24.5-16.56.8-33.79-7.17-44.49-22.15-18.45-25.78-18.42-61.66-1.22-87.99,10.48-16.04,26.07-24.92,43.37-25.01,17.23-.1,33.34,8.39,43.92,24.37,16.43,24.85,17.52,59.41.9,86.29Z"/>
      <path class="cls-7" d="M687.07,186.13c.06-7.69,14-9.84,20.36-9.89.18,51.12,2.31,102.44-.64,153.58-2.71,47.14-36.92,77.76-82.44,78.01-45.3.25-83.28-29.37-83.47-77.43l-.73-181.61c-.02-5.11,20.42-5.45,20.47-.12l1.57,176.92c.33,37.37,29.7,61.82,63.6,60.67,35.75-1.22,59.83-27.25,60.14-64.78l1.14-135.35Z"/>
      <path class="cls-1" d="M79.97,406.79c-30.47,2.97-61.16-5.09-79.45-28.66-3.22-4.15,9.33-17.72,13.19-14.33,23.74,20.83,53.9,30.01,82.89,16.92,18.66-8.43,27.28-25.95,27.93-44.59.71-20.33-11.21-36.2-31.49-44.56l-44.36-18.29c-23.37-9.64-40.03-28.13-43.02-50.19-3.58-26.41,5.13-50.52,27.54-66.75,30.15-21.84,76.8-21.56,104.89,4.76,5.39,5.05-5.26,16.66-9.48,18.53-22.74-18.23-51.33-24.63-76.98-10.58-16.54,9.06-24.29,24.85-23.96,42.35.35,18.43,12.06,31.95,30.56,39.53l48.7,19.94c26.85,10.99,40.5,34.84,39.68,63.71-1.07,37.71-26.66,68.32-66.62,72.22Z"/>
      <path class="cls-4" d="M299.91,236.58l-.36,164.02c-4.57,3.15-18.23,4.19-18.78,0l-4.11-31.34c-16.53,32.68-53.46,49.22-86.07,30.03-14.46-8.51-22.86-27.07-22.92-43.64l-.46-118.31c7.41-2.62,13.55-2.73,20.56-.78l1.45,116.33c.15,12.38,7.9,23.85,15.57,28.51,10.88,6.61,23.9,6.95,35.26,1.35,26.05-12.86,39.21-41.55,39.25-70.51l.1-75.17c6.38-1.92,11.34-2.61,20.51-.47Z"/>
      <path class="cls-2" d="M467.8,255.47l-1.5,143.68c-.06,5.45-16.58,5.62-20.11,1.14l-.67-142.96-21.71-4.26c-3.15-2.21-2.84-13.84.26-16.13,5.53-4.08,13.68.05,20.71-2.4,2.56-10.98.37-21.18,1.71-32.58,3.93-33.37,30.32-61.68,65.98-59.64,5.19.3,5.18,15.46.99,18.32-21.5,1.31-43.84,15.2-45.43,39.67-.75,11.54-1.32,22.82.47,34.44,14.64,2.44,28.45-1.64,43.59,1.72,4.92,1.09,5.07,16.17.11,17.26-14.43,3.15-27.17-.47-44.39,1.72Z"/>
      <path class="cls-6" d="M353.62,400c-.71,4.55-16.64,3.77-19.31.08l.2-162.02c4.07-3.55,15.79-4.32,17.94-.37,5.95,10.96-1.76,23.38,4.23,36.76,7.94-25.92,30.14-44.27,57.48-41.65,1.93,7.18,1.71,13.21-.41,19.96-20.16,1.37-37.79,10.71-46.69,29.29-21.69,45.27-6.98,65.68-13.43,117.94Z"/>
    </g>
  </g>
</svg>