<?xml version="1.0" encoding="UTF-8"?>
<svg id="Layer_2" data-name="Layer 2" xmlns="http://www.w3.org/2000/svg" viewBox="0 0 12.31 24.69">
  <defs>
    <style>
      .cls-1 {
        fill: none;
      }

      .cls-2 {
        fill: #c6c5c4;
      }

      .cls-3 {
        fill: #141414;
      }

      .cls-4 {
        fill: #4c99d3;
      }
    </style>
  </defs>
  <g id="SurfUp_Dude" data-name="SurfUp Dude">
    <g>
      <g id="Path_1140" data-name="Path 1140">
        <path class="cls-4" d="M5.27,23.99c1.74-2.93,3-6.13,3.73-9.46.53-2.53.68-5.13.45-7.71-.18-2.28-.71-4.52-1.58-6.64-.36.37-.7.75-1.02,1.16-1.1,1.38-2.03,2.88-2.8,4.46-1.14,2.33-1.91,4.81-2.29,7.37-.51,3.38-.45,6.81.17,10.17.32.58.84,1.03,1.47,1.24l1.86-.59Z"/>
        <path class="cls-3" d="M3.4,24.69h-.03c-.65-.24-1.19-.69-1.52-1.3v-.03c-.63-3.37-.69-6.81-.18-10.2.38-2.58,1.16-5.07,2.3-7.4.77-1.59,1.71-3.1,2.81-4.48.32-.4.66-.8,1.02-1.17l.11-.11.06.14c.88,2.13,1.41,4.37,1.59,6.67.23,2.59.08,5.2-.45,7.74-.73,3.35-1.99,6.55-3.74,9.5l-.02.03-1.93.61ZM2.03,23.31c.3.55.79.96,1.38,1.17l1.8-.57c1.73-2.92,2.98-6.08,3.7-9.4.53-2.53.68-5.11.45-7.68-.17-2.23-.68-4.4-1.52-6.47-.32.33-.62.68-.9,1.04-1.09,1.37-2.03,2.87-2.79,4.45-1.13,2.32-1.9,4.79-2.28,7.34-.5,3.37-.45,6.78.17,10.12Z"/>
      </g>
      <g id="Path_1141" data-name="Path 1141">
        <path class="cls-1" d="M6.57,6.2h-1.89c0-.52.42-.95.95-.95s.95.42.95.95Z"/>
      </g>
      <g id="Path_1142" data-name="Path 1142">
        <path class="cls-3" d="M6.14,5.46h0c-.01,1.7-1.39,3.06-3.09,3.05C1.35,8.5-.01,7.11,0,5.42c0-.02,0-.04,0-.07v-.03l3.66.07,2.48.07Z"/>
      </g>
      <g id="Path_1143" data-name="Path 1143">
        <path class="cls-1" d="M8.46,6.2h-1.89c0-.52.42-.95.95-.95s.95.42.95.95Z"/>
      </g>
      <g id="Path_1144" data-name="Path 1144">
        <path class="cls-3" d="M12.31,5.56c-.01,1.7-1.39,3.06-3.09,3.05-1.7-.01-3.06-1.39-3.05-3.09,0-.02,0-.04,0-.07v-.03l6.14.14"/>
      </g>
      <g id="Path_1145" data-name="Path 1145">
        <path class="cls-2" d="M4.29,7.03c.42-.1.45.98.45.98l.14-.1.17-.14.17-.14.1-.1s-.1-1.01-.63-1.08-.49-1.01-.49-1.01h-.73s.52,1.67.8,1.6Z"/>
      </g>
      <g id="Path_1146" data-name="Path 1146">
        <path class="cls-2" d="M10.29,7.24c.42-.1.45.98.45.98l.17-.1.17-.1.17-.14.1-.1s-.14-1.05-.66-1.12-.49-1.12-.49-1.12h-.73s.52,1.78.8,1.71Z"/>
      </g>
    </g>
  </g>
</svg>